<svg width="23" height="24" viewBox="0 0 23 24" fill="none" xmlns="http://www.w3.org/2000/svg">
<path d="M4.61864 15.0789C5.09352 15.7938 5.56841 16.5087 6.16202 17.1044C6.87435 17.9385 7.7054 18.6534 8.65517 19.3683C11.3858 21.5129 14.8287 22.7044 18.2716 22.8236C18.2716 22.8236 19.1027 22.7044 19.3401 22.4661L20.8835 21.0363C21.4771 20.5597 21.7145 19.4874 21.4771 18.7725L21.3584 18.4151C21.2396 17.9385 20.8835 17.4619 20.4086 17.1044C20.1711 16.8661 19.9337 16.747 19.6963 16.6278L17.0844 15.7938C16.3721 15.5555 15.3036 15.7938 14.71 16.2704L13.6415 17.2236C10.0798 16.0321 7.46795 13.1725 6.6369 9.59805L7.70539 8.64486C8.299 8.16826 8.53644 7.09592 8.41772 6.38102L7.94284 3.6406C7.94284 3.52145 7.82412 3.28315 7.70539 3.164C7.34923 2.56826 6.87435 1.97251 6.28074 1.73422L6.04329 1.61507C5.33097 1.37677 4.26247 1.49592 3.66887 2.09166L2.12549 3.4023C1.88804 3.75975 1.6506 4.47464 1.6506 4.47464C1.41316 8.28741 2.48165 11.981 4.61864 15.0789Z" stroke="#122846" stroke-width="2" stroke-miterlimit="10"/>
<path d="M8.65518 19.3682C6.87436 18.415 5.4497 16.8661 4.61865 15.0789" stroke="#183762" stroke-width="2" stroke-miterlimit="10"/>
</svg>
