<svg width="22" height="24" viewBox="0 0 22 24" fill="none" xmlns="http://www.w3.org/2000/svg">
<g clip-path="url(#clip0)">
<path d="M3.50008 16C3.90008 16.6 4.30008 17.2 4.80008 17.7C5.40008 18.4 6.10008 19 6.90008 19.6C9.20008 21.4 12.1001 22.4 15.0001 22.5C15.0001 22.5 15.7001 22.4 15.9001 22.2L17.2001 21C17.7001 20.6 17.9001 19.7 17.7001 19.1L17.6001 18.8C17.5001 18.4 17.2001 18 16.8001 17.7C16.6001 17.5 16.4001 17.4 16.2001 17.3L14.0001 16.6C13.4001 16.4 12.5001 16.6 12.0001 17L11.1001 17.8C8.10008 16.8 5.90008 14.4 5.20008 11.4L6.10008 10.6C6.60008 10.2 6.80008 9.29997 6.70008 8.69997L6.30008 6.39997C6.30008 6.29997 6.20008 6.09997 6.10008 5.99997C5.80008 5.49997 5.40008 4.99997 4.90008 4.79997L4.70008 4.69997C4.10008 4.49997 3.20008 4.59997 2.70008 5.09997L1.40008 6.19997C1.20008 6.49997 1.00008 7.09997 1.00008 7.09997C0.800081 10.3 1.70008 13.4 3.50008 16Z" stroke="#183762" stroke-width="2" stroke-miterlimit="10"/>
<path d="M6.9 19.6C5.4 18.8 4.2 17.5 3.5 16" stroke="#183762" stroke-width="2" stroke-miterlimit="10"/>
<path d="M10.5 6.59998C13 7.29998 14.8 9.49998 14.8 12.2C14.8 12.4 14.8 12.7 14.8 12.9" stroke="#0F65BA" stroke-width="2" stroke-miterlimit="10"/>
<path d="M11.8 3.90002C15.3 5.10002 17.7 8.30002 17.7 12.2C17.7 12.2 17.7 12.3 17.7 12.4" stroke="#0F65BA" stroke-width="2" stroke-miterlimit="10"/>
<path d="M13.1001 0.900024C17.5001 2.60002 20.7001 6.70002 20.9001 11.7" stroke="#0F65BA" stroke-width="2" stroke-miterlimit="10"/>
</g>
<defs>
<clipPath id="clip0">
<rect width="21.9" height="23.5" fill="white"/>
</clipPath>
</defs>
</svg>
