<svg width="20" height="20" viewBox="0 0 20 20" fill="none" xmlns="http://www.w3.org/2000/svg">
<g clip-path="url(#clip0)">
<path d="M18.3523 2.89813C16.1561 0.700625 12.5942 0.700625 10.398 2.89813L1.27922 11.9088C-0.426406 13.6144 -0.426406 16.3906 1.27922 18.0963C2.98484 19.8019 5.76047 19.8019 7.46547 18.0963L16.5842 9.085C17.8048 7.86438 17.8048 5.88625 16.5842 4.66563C15.3636 3.44563 13.3848 3.44563 12.1655 4.66563L5.31047 11.5206C5.06609 11.7656 5.06609 12.16 5.31047 12.405C5.55484 12.6494 5.94984 12.6494 6.19422 12.405L13.0498 5.54937C13.7811 4.81875 14.9698 4.81875 15.7011 5.54937C16.4323 6.28062 16.4323 7.47 15.7011 8.20125L6.58235 17.2119C5.36172 18.4325 3.38422 18.4325 2.16359 17.2119C0.942969 15.9919 0.942969 14.0131 2.16359 12.7931L11.193 3.87C12.9017 2.16125 15.673 2.16125 17.3792 3.87C19.0892 5.57937 19.0892 8.34812 17.3805 10.0569L10.6142 16.8237C10.3686 17.0687 10.3686 17.4631 10.6142 17.7075C10.8586 17.9525 11.2536 17.9525 11.498 17.7075L18.3523 10.8525C20.5498 8.65625 20.5498 5.09438 18.3523 2.89813Z" fill="#0F65BA"/>
</g>
<defs>
<clipPath id="clip0">
<rect width="20" height="20" fill="white"/>
</clipPath>
</defs>
</svg>
