<svg width="40" height="40" viewBox="0 0 40 40" fill="none" xmlns="http://www.w3.org/2000/svg">
<g clip-path="url(#clip0)">
<path d="M6.7998 26.2001L11.7998 24.4001C12.2998 24.2001 13.1998 24.2001 13.6998 24.3001L14.0998 24.4001C14.5998 24.5001 15.3998 24.9001 15.7998 25.3001L16.7998 26.2001C17.1998 26.6001 17.9998 26.9001 18.4998 27.0001L20.2998 27.2001C20.7998 27.2001 21.6998 27.3001 22.2998 27.4001L23.0998 27.5001C23.5998 27.5001 24.4998 27.8001 24.8998 28.0001C25.2998 28.2001 25.7998 28.9001 25.9998 29.4001L26.1998 30.1001C26.3998 30.6001 26.8998 31.0001 27.4998 30.8001L34.9998 29.0001C35.4998 28.9001 36.3998 28.9001 36.8998 29.0001H37.0998C37.5998 29.1001 38.2998 29.6001 38.4998 30.1001L38.6998 30.4001C38.9998 31.0001 38.9998 31.7001 38.8998 32.0001C38.6998 32.3001 38.1998 32.8001 37.5998 33.0001L25.3998 37.6001C24.8998 37.8001 23.9998 38.0001 23.4998 38.0001H21.8998C21.3998 38.0001 20.4998 37.9001 19.8998 37.8001L6.2998 34.0001" stroke="#122846" stroke-width="2" stroke-miterlimit="10"/>
<path d="M14.2002 30.3L21.0002 32.1C21.5002 32.2 22.4002 32.2 22.9002 32.1L27.0002 30.8" stroke="#122846" stroke-width="2" stroke-miterlimit="10"/>
<path d="M16.7 5.49995C15.7 6.09995 15 7.39995 15 8.49995V16.7C15 17.8 15.8 19.1 16.7 19.7L23.8 23.7999C24.8 24.2999 26.3 24.2999 27.3 23.7999L34.4 19.7C35.4 19.1 36.1 17.8 36.1 16.7V8.49995C36.1 7.39995 35.3 6.09995 34.4 5.49995L27.3 1.39995C26.3 0.799951 24.8 0.799951 23.8 1.39995L16.7 5.49995Z" stroke="#122846" stroke-width="2" stroke-miterlimit="10"/>
<path d="M25.5 12.5V20" stroke="#122846" stroke-width="1.4" stroke-miterlimit="10"/>
<path d="M15.5 6.80005L25.5 12.5" stroke="#122846" stroke-width="1.4" stroke-miterlimit="10"/>
<path d="M32.2 8.69995L25.5 12.6" stroke="#122846" stroke-width="1.4" stroke-miterlimit="10"/>
<path d="M30.8999 3.5L20.3999 9.5" stroke="#122846" stroke-width="1.4" stroke-miterlimit="10"/>
<path d="M6.3 37.6C6.3 38.2 5.8 38.6 5.3 38.6H2C1.5 38.6 1 38.2 1 37.6V21.8C1 21.2 1.5 20.8 2 20.8H5.3C5.8 20.8 6.3 21.2 6.3 21.8V37.6Z" stroke="#2C87E0" stroke-width="2" stroke-miterlimit="10"/>
</g>
<defs>
<clipPath id="clip0">
<rect width="40" height="39.6" fill="white"/>
</clipPath>
</defs>
</svg>
