<svg width="58" height="65" viewBox="0 0 58 65" fill="none" xmlns="http://www.w3.org/2000/svg">
<g clip-path="url(#clip0)">
<path d="M26.9002 35.7C21.8002 35.7 17.7002 31.6 17.7002 26.5C17.7002 21.4 21.8002 17.3 26.9002 17.3C32.0002 17.3 36.1002 21.4 36.1002 26.5C36.1002 31.6 32.0002 35.7 26.9002 35.7Z" stroke="#122846" stroke-width="2" stroke-miterlimit="10"/>
<path d="M49.5 36.7C50.8 33.5 51.5 30 51.5 26.5C51.5 12.7 40.3 1.5 26.5 1.5C12.7 1.5 1.5 12.7 1.5 26.5C1.5 44.7 26.5 63 26.5 63C26.5 63 29.9 60.8 34.2 57" stroke="#183762" stroke-width="3" stroke-miterlimit="10"/>
<path d="M43.8 60.6C37 60.6 31.5 55.1 31.5 48.3C31.5 41.5 37 36 43.8 36C50.6 36 56.1 41.5 56.1 48.3C56.1 55.1 50.6 60.6 43.8 60.6Z" stroke="#183762" stroke-width="3" stroke-miterlimit="10"/>
<path d="M38.9004 47.3L42.8004 51.2L49.5004 44.6" stroke="#0F65BA" stroke-width="2" stroke-miterlimit="10"/>
</g>
<defs>
<clipPath id="clip0">
<rect width="57.6" height="64.8" fill="white"/>
</clipPath>
</defs>
</svg>
