<svg width="300" height="50" viewBox="0 0 300 50" fill="none" xmlns="http://www.w3.org/2000/svg">
<path d="M68.4533 37.2998L70.9801 43.3639L73.5069 37.2998H75.2297V44.508H74.0812V40.2746C74.0812 40.0458 74.0812 39.1305 74.0812 38.444L71.6692 44.508H70.5207L68.1087 38.444C68.1087 39.1305 68.1087 40.0458 68.1087 40.2746V44.508H66.9602V37.2998H68.4533Z" fill="#122846"/>
<path d="M80.8577 40.2746H83.729C85.5667 40.2746 86.3707 41.4188 86.3707 42.4485C86.3707 43.5927 85.337 44.508 83.8439 44.508H79.824V37.2998H80.9725V40.2746H80.8577ZM80.8577 43.7071H83.3845C84.3033 43.7071 85.1073 43.4783 85.1073 42.563C85.1073 41.6476 84.4182 41.19 83.2696 41.19H80.8577V43.7071ZM88.6678 44.508H87.5192V37.2998H88.6678V44.508Z" fill="#122846"/>
<path d="M101.761 43.8215C102.68 43.8215 104.058 43.5926 104.058 42.5629C104.058 41.5331 103.025 41.1899 101.876 41.1899H100.957V40.389H101.646C102.68 40.389 103.714 40.0457 103.714 39.2448C103.714 38.1006 102.45 37.9862 101.646 37.9862C100.613 37.9862 99.4641 38.3295 99.4641 39.4736H98.3155C98.3155 38.6727 98.8898 37.1853 101.761 37.1853C103.599 37.1853 104.862 37.9862 104.862 39.1304C104.862 40.0457 103.943 40.6178 103.369 40.7322C104.403 40.961 105.207 41.5331 105.207 42.6773C105.207 44.2791 103.369 44.8512 101.761 44.8512C98.5452 44.8512 98.2007 43.5926 98.2007 42.334H99.3492C99.3492 43.4782 100.383 43.8215 101.761 43.8215Z" fill="#122846"/>
<path d="M110.72 40.2746H115.314V37.2998H116.463V44.508H115.314V41.19H110.72V44.508H109.571V37.2998H110.72V40.2746Z" fill="#122846"/>
<path d="M122.435 42.4485L121.516 44.508H120.253L123.469 37.2998H124.847L127.948 44.508H126.685L125.766 42.4485H122.435ZM125.421 41.5332L124.158 38.3296L122.779 41.5332H125.421Z" fill="#122846"/>
<path d="M138.4 44.508H131.968V37.2998H138.285V38.2151H133.116V40.2746H137.825V41.19H133.116V43.7071H138.4V44.508Z" fill="#122846"/>
<path d="M144.372 37.2998L146.899 43.3639L149.426 37.2998H151.149V44.508H150V40.2746C150 40.0458 150 39.1305 150 38.444L147.588 44.508H146.44L144.028 38.444C144.028 39.1305 144.028 40.0458 144.028 40.2746V44.508H142.879V37.2998H144.372Z" fill="#122846"/>
<path d="M164.816 44.7368C161.6 44.7368 160.567 42.5629 160.567 40.961C160.567 39.3592 161.6 37.1853 164.816 37.1853C168.032 37.1853 169.066 39.3592 169.066 40.961C169.066 42.4485 168.032 44.7368 164.816 44.7368ZM164.816 37.9862C162.979 37.9862 161.83 39.2448 161.83 40.8466C161.83 42.5629 162.979 43.8215 164.816 43.8215C166.654 43.8215 167.802 42.5629 167.802 40.8466C167.802 39.1304 166.654 37.9862 164.816 37.9862Z" fill="#122846"/>
<path d="M183.423 38.1007C186.179 38.1007 187.443 39.4737 187.443 40.9611C187.443 42.4485 186.179 43.8215 183.423 43.8215V44.508H182.274V43.8215C179.518 43.8215 178.254 42.4485 178.254 40.9611C178.254 39.4737 179.518 38.1007 182.274 38.1007V37.4142H183.423V38.1007ZM182.159 43.0206V38.7872C180.551 38.7872 179.288 39.3593 179.288 40.8467C179.288 42.3341 180.551 43.0206 182.159 43.0206ZM183.423 38.7872V43.0206C185.031 43.0206 186.294 42.4485 186.294 40.9611C186.294 39.4737 185.031 38.7872 183.423 38.7872Z" fill="#122846"/>
<path d="M192.726 43.2494L197.205 37.4142H198.583V44.6224H197.435V38.7872L192.956 44.6224H191.577V37.4142H192.726V43.2494Z" fill="#122846"/>
<path d="M209.724 37.2997V44.508H208.576V38.2151H205.245V41.1899C205.245 43.9359 204.441 44.6224 203.178 44.6224C202.948 44.6224 202.603 44.6224 202.374 44.508V43.707C202.488 43.707 202.718 43.707 202.948 43.707C203.867 43.707 204.096 42.7917 204.096 40.7322V37.1853H209.724V37.2997Z" fill="#122846"/>
<path d="M215.582 40.2746H218.453C220.291 40.2746 221.095 41.4188 221.095 42.4485C221.095 43.5927 220.061 44.508 218.568 44.508H214.548V37.2998H215.697V40.2746H215.582ZM215.582 43.7071H218.109C219.028 43.7071 219.832 43.4783 219.832 42.563C219.832 41.6476 219.143 41.19 217.994 41.19H215.582V43.7071Z" fill="#122846"/>
<path d="M227.182 44.508H226.034V38.2151H223.047V37.2998H230.168V38.2151H227.182V44.508Z" fill="#122846"/>
<path d="M235.107 44.508H233.959V37.2998H237.864C239.472 37.2998 240.391 38.2151 240.391 39.3593C240.391 40.3891 239.701 41.5332 237.864 41.5332H235.107V44.508ZM235.107 40.6179H237.404C238.438 40.6179 239.127 40.2746 239.127 39.3593C239.127 38.444 238.323 38.2151 237.404 38.2151H234.992V40.6179H235.107Z" fill="#122846"/>
<path d="M245.214 42.4485L244.296 44.508H243.032L246.248 37.2998H247.626L250.727 44.508H249.464L248.545 42.4485H245.214ZM248.316 41.5332L247.052 38.3296L245.674 41.5332H248.316Z" fill="#122846"/>
<path d="M261.753 44.508H260.26L257.963 41.5332L255.551 44.508H254.173L257.274 40.8467L254.403 37.2998H255.896L258.078 40.0458L260.26 37.2998H261.639L258.767 40.8467L261.753 44.508Z" fill="#122846"/>
<path d="M271.057 37.2998H274.847C276.455 37.2998 277.259 38.1007 277.259 39.1305C277.259 39.5881 277.029 40.2746 276.11 40.6179C276.685 40.8467 277.718 41.19 277.718 42.3341C277.718 43.4783 276.685 44.508 274.732 44.508H271.057V37.2998ZM272.205 40.389H274.273C275.421 40.389 276.11 40.1602 276.11 39.2449C276.11 38.5584 275.651 38.2151 274.273 38.2151H272.205V40.389ZM272.205 43.7071H274.732C275.995 43.7071 276.57 43.135 276.57 42.3341C276.57 41.3044 275.536 41.0756 274.502 41.0756H272.205V43.7071Z" fill="#122846"/>
<path d="M288.17 39.4736C287.825 38.2151 286.562 37.9862 285.758 37.9862C284.15 37.9862 282.887 38.9016 282.887 40.8466C282.887 42.5629 283.576 43.8215 285.758 43.8215C286.562 43.8215 287.825 43.4782 288.285 41.8764H289.433C288.974 44.6224 286.332 44.7368 285.643 44.7368C283.691 44.7368 281.738 43.707 281.738 40.961C281.738 38.7871 283.231 37.1853 285.758 37.1853C288.055 37.1853 289.204 38.3295 289.318 39.588H288.17V39.4736Z" fill="#122846"/>
<path d="M300 44.508H293.568V37.2998H299.885V38.2151H294.717V40.2746H299.426V41.1899H294.717V43.7071H300V44.508ZM295.176 36.4989V35.4691H296.21V36.4989H295.176ZM297.588 36.4989V35.4691H298.622V36.4989H297.588Z" fill="#122846"/>
<path d="M77.0675 28.833V26.4302H76.6081C75.0001 26.3158 66.6157 25.6293 66.6157 17.6202C66.6157 9.49659 75.5744 8.81009 76.6081 8.69568H77.0675V6.40735H82.1211V8.69568H82.5805C83.6142 8.69568 92.5728 9.38218 92.5728 17.6202C92.5728 25.5149 84.3033 26.3158 82.5805 26.4302H82.1211V28.833H77.0675ZM82.1211 22.4257H82.5805C85.6816 22.1968 87.4044 20.595 87.4044 17.6202C87.4044 14.6453 85.6816 12.9291 82.5805 12.7003H82.1211V22.4257ZM76.6081 12.8147C73.507 13.0435 71.7842 14.7598 71.7842 17.7346C71.7842 20.595 73.507 22.3112 76.6081 22.5401H77.0675V12.8147H76.6081Z" fill="#122846"/>
<path d="M111.409 28.8329V13.5011L102.221 28.8329H96.9373V6.52173H101.991V21.5103L110.835 6.52173H116.348V28.8329H111.409Z" fill="#122846"/>
<path d="M122.895 29.405C121.746 29.405 120.712 29.2906 119.908 29.0618H119.793V25.1716L120.023 25.286C120.368 25.4004 120.827 25.5149 121.401 25.5149C123.354 25.5149 123.928 24.2563 123.928 19.4508V6.52173H140.123V28.8329H135.069V10.6407H128.982V19.9085C128.982 23.913 128.293 29.405 122.895 29.405Z" fill="#122846"/>
<path d="M145.291 28.8329V6.52173H150.345V14.8741H156.087C160.796 14.8741 164.012 17.7345 164.012 21.968C164.012 26.0869 160.911 28.8329 155.972 28.8329H145.291ZM150.345 24.7139H155.513C157.58 24.7139 158.959 23.5698 158.959 21.7391C158.959 20.0229 157.695 18.9931 155.513 18.9931H150.345V24.7139Z" fill="#122846"/>
<path d="M170.329 28.8329V10.6407H162.979V6.52173H182.848V10.6407H175.383V28.8329H170.329Z" fill="#122846"/>
<path d="M186.754 28.8329V6.52173H198.354C202.833 6.52173 205.59 9.26772 205.59 13.73C205.59 16.2471 204.097 20.9382 198.239 20.9382H191.807V28.8329H186.754ZM191.807 16.8192H197.205C199.503 16.8192 200.651 15.675 200.651 13.5011C200.651 11.4416 199.503 10.6407 196.631 10.6407H191.807V16.8192Z" fill="#122846"/>
<path d="M222.244 28.8329L220.751 24.2563H212.596L210.988 28.8329H205.705L213.859 6.52173H219.602L227.757 28.8329H222.244ZM213.974 20.1373H219.602L216.731 12.0137L213.974 20.1373Z" fill="#122846"/>
<path d="M247.397 33.4096V28.8329H231.202V6.52173H236.256V24.7139H244.87V6.52173H249.923V24.7139H252.221V33.4096H247.397Z" fill="#122846"/>
<path d="M270.253 28.8329V13.5011L261.179 28.8329H255.781V6.52173H260.835V21.5103L269.678 6.52173H275.306V28.8329H270.253Z" fill="#122846"/>
<path d="M294.832 28.8329V20.2517H290.467L285.184 28.8329H279.326L284.954 19.794L284.495 19.5652C281.623 18.421 279.9 16.1327 279.9 13.3867C279.9 10.0686 282.427 6.52173 287.251 6.52173H300V28.8329H294.832ZM288.055 10.6407C285.528 10.6407 284.839 12.357 284.839 13.2723C284.839 15.103 286.103 16.1327 288.4 16.1327H294.832V10.6407H288.055Z" fill="#122846"/>
<path d="M31.5849 1.48745C31.2403 2.5172 31.1255 3.54695 31.2403 4.69111C31.3552 5.26319 31.47 5.72086 31.6998 6.29294C39.5099 9.03894 45.1377 16.3616 45.1377 25.0572C45.1377 26.5447 45.0229 27.9177 44.6783 29.2907C44.7932 29.2907 44.908 29.4051 45.0229 29.4051C46.516 30.0916 47.8942 30.8925 49.1576 31.9222C49.7319 29.7483 50.0765 27.46 50.0765 25.0572C50.0765 13.6156 42.2664 3.8902 31.6998 1.02979L31.5849 1.48745Z" fill="#1263AD"/>
<path d="M1.37825 31.1213C2.41194 31.0069 3.44564 30.5492 4.24962 29.8627C4.70903 29.5194 5.0536 29.1762 5.39816 28.7185C5.16845 27.5744 5.0536 26.3158 5.0536 25.0572C5.0536 16.0183 11.026 8.46681 19.0658 5.94965C19.0658 5.83523 19.0658 5.72081 18.951 5.6064C18.7213 4.00457 18.8361 2.40273 19.0658 0.800903C8.15467 3.31807 0 13.2723 0 24.9428C0 27.1167 0.229709 29.1762 0.803982 31.1213H1.37825Z" fill="#1263AD"/>
<path d="M42.3814 42.2197C41.6923 41.4188 40.7734 40.7323 39.7397 40.389C39.1655 40.1602 38.7061 40.0458 38.1318 40.0458C34.5713 43.135 29.9771 44.9657 25.0384 44.9657C19.7551 44.9657 15.046 42.9062 11.4855 39.7025C11.3707 39.8169 11.2558 39.9313 11.141 39.9313C9.87757 40.8467 8.38447 41.6476 6.89136 42.2197C11.4855 47.0252 17.9174 50 25.0384 50C31.9296 50 38.2466 47.254 42.726 42.6773L42.3814 42.2197Z" fill="#1263AD"/>
<path d="M43.6448 32.6087C42.0369 31.9222 40.314 31.4645 38.5912 31.3501C39.5101 29.405 40.0843 27.1167 40.0843 24.9428C40.0843 19.222 36.8684 14.3021 32.1594 11.8993C29.7474 10.2975 28.2543 7.89474 27.9098 5.26316C27.68 3.66133 27.7949 1.83066 28.3692 0.228833C27.2206 0.114416 26.1869 0 25.0384 0C24.3493 0 23.6601 0 22.971 0.114416C22.5116 1.83066 22.3967 3.54691 22.6264 5.26316C22.8562 6.97941 23.3156 8.69565 24.1196 10.2975H24.0047C18.4917 10.7551 13.5529 14.4165 11.3707 19.4508C10.7964 20.7094 10.4519 22.0824 10.337 23.4554C10.1073 25.286 10.337 27.0023 9.53304 28.7185C8.84391 30.206 7.81022 31.5789 6.54682 32.6087C5.28342 33.6384 3.67545 34.3249 1.95264 34.6682C2.64176 36.27 3.44575 37.8719 4.47944 39.2449C6.20225 38.7872 7.69536 37.9863 9.07362 36.9565C10.5667 35.9268 11.7153 34.6682 12.749 33.1808C12.6341 33.2952 13.5529 34.2105 13.6678 34.3249C14.7015 35.4691 15.85 36.4989 17.2283 37.4142C19.066 38.5584 21.2482 39.3593 23.4304 39.5881C25.1532 39.8169 26.8761 39.7025 28.484 39.2449C30.3217 38.7872 31.7 37.8719 33.3079 37.0709C35.7199 35.9268 38.5912 35.9268 40.8883 36.8421C42.4963 37.4142 43.8745 38.4439 45.0231 39.7025C46.0568 38.3295 46.9756 36.8421 47.6647 35.2403C46.631 34.2105 45.1379 33.2952 43.6448 32.6087ZM34.6862 26.4302C33.8822 30.778 30.3217 34.6682 25.383 34.6682C19.7551 34.6682 14.9312 29.8627 15.3906 24.2563C15.7352 19.222 20.0996 15.2174 25.1532 15.2174C28.5989 15.2174 31.7 17.0481 33.4228 19.6796C34.6862 21.8535 35.0307 24.1419 34.6862 26.4302Z" fill="#1263AD"/>
</svg>
