<svg width="45" height="57" viewBox="0 0 45 57" fill="none" xmlns="http://www.w3.org/2000/svg">
<path d="M44.3957 22.1978C44.3957 36.1984 22.1978 56.5 22.1978 56.5C22.1978 56.5 0 36.1984 0 22.1978C0 9.93831 9.93831 0 22.1978 0C34.4574 0 44.3957 9.93831 44.3957 22.1978Z" fill="#0F65BA"/>
<path d="M25.6488 7.74997C25.4454 8.35799 25.3775 8.966 25.4454 9.64158C25.5132 9.97937 25.581 10.2496 25.7166 10.5874C30.3281 12.2088 33.6511 16.5325 33.6511 21.6668C33.6511 22.5451 33.5833 23.3558 33.3799 24.1665C33.4477 24.1665 33.5155 24.234 33.5833 24.234C34.4649 24.6394 35.2787 25.1123 36.0247 25.7203C36.3638 24.4367 36.5672 23.0855 36.5672 21.6668C36.5672 14.9111 31.9557 9.16868 25.7166 7.47974L25.6488 7.74997Z" fill="white"/>
<path d="M7.8138 25.2474C8.42414 25.1798 9.03449 24.9096 9.5092 24.5042C9.78047 24.3016 9.98392 24.0989 10.1874 23.8287C10.0517 23.1531 9.98392 22.41 9.98392 21.6668C9.98392 16.3298 13.5104 11.871 18.2575 10.3847C18.2575 10.3171 18.2575 10.2496 18.1897 10.182C18.0541 9.23622 18.1219 8.29041 18.2575 7.3446C11.815 8.83087 7 14.7084 7 21.5993C7 22.8829 7.13563 24.0989 7.47471 25.2474H7.8138Z" fill="white"/>
<path d="M32.0246 31.8005C31.6177 31.3276 31.0751 30.9222 30.4648 30.7196C30.1257 30.5844 29.8544 30.5169 29.5154 30.5169C27.4131 32.3409 24.7004 33.4219 21.7843 33.4219C18.6648 33.4219 15.8843 32.2058 13.782 30.3142C13.7142 30.3818 13.6464 30.4493 13.5785 30.4493C12.8326 30.9898 11.9509 31.4627 11.0693 31.8005C13.782 34.6379 17.5797 36.3944 21.7843 36.3944C25.8533 36.3944 29.5832 34.773 32.228 32.0707L32.0246 31.8005Z" fill="white"/>
<path d="M32.5305 25.4237C31.6118 25.0324 30.6276 24.7715 29.6434 24.7063C30.1683 23.5974 30.4964 22.2929 30.4964 21.0537C30.4964 17.7924 28.6591 14.9877 25.9689 13.618C24.5909 12.7048 23.7379 11.3351 23.5411 9.83495C23.4099 8.9218 23.4755 7.8782 23.8036 6.96504C23.1474 6.89982 22.5569 6.83459 21.9007 6.83459C21.507 6.83459 21.1133 6.83459 20.7196 6.89982C20.4572 7.8782 20.3915 8.85657 20.5228 9.83495C20.654 10.8133 20.9165 11.7917 21.3758 12.7048H21.3102C18.1606 12.9657 15.3391 15.0529 14.0924 17.9229C13.7643 18.6403 13.5675 19.423 13.5019 20.2057C13.3706 21.2493 13.5019 22.2277 13.0426 23.2061C12.6489 24.054 12.0583 24.8367 11.3365 25.4237C10.6148 26.0108 9.69615 26.4021 8.71191 26.5978C9.10561 27.5109 9.56492 28.4241 10.1555 29.2068C11.1397 28.9459 11.9927 28.4893 12.7801 27.9023C13.6331 27.3153 14.2893 26.5978 14.8798 25.7499C14.8142 25.8151 15.3391 26.3369 15.4047 26.4021C15.9953 27.0544 16.6514 27.6414 17.4388 28.1632C18.4887 28.8154 19.7354 29.272 20.9821 29.4025C21.9663 29.5329 22.9506 29.4677 23.8692 29.2068C24.919 28.9459 25.7064 28.4241 26.625 27.9675C28.003 27.3153 29.6434 27.3153 30.9557 27.8371C31.8743 28.1632 32.6617 28.7502 33.3179 29.4677C33.9084 28.685 34.4333 27.8371 34.827 26.9239C34.2365 26.3369 33.3835 25.8151 32.5305 25.4237ZM27.4124 21.9016C26.9531 24.3801 24.919 26.5978 22.0975 26.5978C18.8824 26.5978 16.1265 23.8583 16.389 20.6623C16.5858 17.7924 19.0792 15.5095 21.9663 15.5095C23.9348 15.5095 25.7064 16.5531 26.6907 18.0533C27.4124 19.2926 27.6093 20.5971 27.4124 21.9016Z" fill="white"/>
</svg>
