<svg width="66" height="65" viewBox="0 0 66 65" fill="none" xmlns="http://www.w3.org/2000/svg">
<g clip-path="url(#clip0)">
<path d="M44.9001 62.8C55.4487 62.8 64 54.2486 64 43.7C64 33.1514 55.4487 24.6 44.9001 24.6C34.3514 24.6 25.8 33.1514 25.8 43.7C25.8 54.2486 34.3514 62.8 44.9001 62.8Z" stroke="#183762" stroke-width="3" stroke-miterlimit="10"/>
<path d="M1.5 35.3V50.3" stroke="#183762" stroke-width="3" stroke-miterlimit="10"/>
<path d="M1.5 20.9V36" stroke="#183762" stroke-width="3" stroke-miterlimit="10"/>
<path d="M28.6 17.3C43.5669 17.3 55.7 13.763 55.7 9.4C55.7 5.03695 43.5669 1.5 28.6 1.5C13.6331 1.5 1.5 5.03695 1.5 9.4C1.5 13.763 13.6331 17.3 28.6 17.3Z" stroke="#183762" stroke-width="3" stroke-miterlimit="10"/>
<path d="M22.9 58.2C10.7 57.4 1.5 54.3 1.5 50.5" stroke="#183762" stroke-width="3" stroke-miterlimit="10"/>
<path d="M24.8 27.5C11.7 27 1.5 23.6 1.5 19.6" stroke="#183762" stroke-width="2" stroke-miterlimit="10"/>
<path d="M19.8 37.5C9.2 36.4 1.5 33.5 1.5 30" stroke="#183762" stroke-width="2" stroke-miterlimit="10"/>
<path d="M19.3 48C8.9 46.9 1.5 44 1.5 40.6" stroke="#183762" stroke-width="2" stroke-miterlimit="10"/>
<path d="M1.5 10V22.3" stroke="#183762" stroke-width="3" stroke-miterlimit="10"/>
<path d="M55.7 9.9V20.7" stroke="#183762" stroke-width="3" stroke-miterlimit="10"/>
<path d="M45.7 42.7H45.5C42.7 42.2 41.0999 41.8 41.0999 40.4C41.0999 38 45 37.9 45.4 37.9C47.1 37.9 48.6999 38.1 49.7999 39.7C49.9 39.9 50.2 39.9 50.4 39.8L51.4 39.3C51.5 39.2 51.5999 39.1 51.5999 39C51.5999 38.9 51.6 38.8 51.5 38.7C49.9 36.5 47.9 36.1 45.4 36.1C43.2 36.1 41.2999 36.7 40.0999 37.7C39.2999 38.4 38.9 39.3 39 40.4C39 43.4 42.3 44 45.2 44.5C48.1 45 50 45.5 50 47.2C50 49.6 46.8 49.8 45.5 49.8C43.7 49.8 41.3999 49 40.5999 47.4C40.4999 47.2 40.2 47.1 40 47.2L38.9 47.7C38.8 47.7 38.7 47.8 38.7 47.9C38.7 48 38.7 48.1 38.7 48.2C40.1 50.7 43.1 51.5 45.5 51.5C49.6 51.5 52.0999 49.9 52.0999 47.1C51.9999 43.8 48.7 43.2 45.7 42.7Z" fill="#0F65BA"/>
<path d="M45.3 32.3V36" stroke="#0F65BA" stroke-width="2" stroke-miterlimit="10"/>
<path d="M45.3 51.6V55.1" stroke="#0F65BA" stroke-width="2" stroke-miterlimit="10"/>
</g>
<defs>
<clipPath id="clip0">
<rect width="65.5" height="64.3" fill="white"/>
</clipPath>
</defs>
</svg>
