<svg width="67" height="65" viewBox="0 0 67 65" fill="none" xmlns="http://www.w3.org/2000/svg">
<g clip-path="url(#clip0)">
<path d="M64.9 58.1C64.9 61 56.8 63.4 46.7 63.4C36.6 63.4 28.5 61 28.5 58.1" stroke="#0F65BA" stroke-width="3" stroke-miterlimit="10"/>
<path d="M64.9 49.8C64.9 52.7 56.8 55.1 46.7 55.1C36.6 55.1 28.5 52.7 28.5 49.8" stroke="#0F65BA" stroke-width="2" stroke-miterlimit="10"/>
<path d="M28.6001 29.6C28.6001 26.7 36.7001 24.3 46.8001 24.3C56.9001 24.3 65.0001 26.7 65.0001 29.6" stroke="#0F65BA" stroke-width="3" stroke-miterlimit="10"/>
<path d="M28.6001 29.5V58.1" stroke="#0F65BA" stroke-width="3" stroke-miterlimit="10"/>
<path d="M28.6001 29.5V58.1" stroke="#0F65BA" stroke-width="3" stroke-miterlimit="10"/>
<path d="M64.8999 29.5V58.1" stroke="#0F65BA" stroke-width="3" stroke-miterlimit="10"/>
<path d="M21.3 62.5C10.1 62.1 1.5 59.4 1.5 56" stroke="#183762" stroke-width="3" stroke-miterlimit="10"/>
<path d="M21 52.3C18.7 52.2 16.5 52 14.5 51.8C11.8 51.4 9.5 50.9 7.5 50.3C3.8 49.1 1.5 47.6 1.5 45.9" stroke="#183762" stroke-width="3" stroke-miterlimit="10"/>
<path d="M45.9999 8C45.9999 9.3 44.6999 10.5 42.4999 11.5C38.5999 13.3 31.5999 14.5 23.6999 14.5C22.8999 14.5 22.1999 14.5 21.3999 14.5C18.8999 14.4 16.5999 14.2 14.3999 13.9C11.6999 13.5 9.3999 13 7.3999 12.4C6.4999 12.1 5.5999 11.8 4.8999 11.5C2.6999 10.5 1.3999 9.3 1.3999 8C1.3999 4.4 11.3999 1.5 23.6999 1.5C36.0999 1.5 45.9999 4.4 45.9999 8Z" stroke="#183762" stroke-width="3" stroke-miterlimit="10"/>
<path d="M1.5 8V15V39V45.8V56" stroke="#183762" stroke-width="3" stroke-miterlimit="10"/>
<path d="M7.5 19.5V34.6V43.5" stroke="#183762" stroke-width="2" stroke-miterlimit="10"/>
<path d="M14.5 20.9V33.1V44.9" stroke="#183762" stroke-width="2" stroke-miterlimit="10"/>
<path d="M21.5 21.5V32.5V45.5" stroke="#183762" stroke-width="2" stroke-miterlimit="10"/>
<path d="M46 8V15V17.5" stroke="#183762" stroke-width="3" stroke-miterlimit="10"/>
</g>
<defs>
<clipPath id="clip0">
<rect width="66.4" height="64.9" fill="white"/>
</clipPath>
</defs>
</svg>
