<svg width="67" height="64" viewBox="0 0 67 64" fill="none" xmlns="http://www.w3.org/2000/svg">
<g clip-path="url(#clip0)">
<path d="M46.7 47.7L50.5999 51.7L57.2999 45" stroke="#0F65BA" stroke-width="2" stroke-miterlimit="10"/>
<path d="M51.4999 61.9C59.011 61.9 65.0999 55.8111 65.0999 48.3C65.0999 40.7889 59.011 34.7 51.4999 34.7C43.9888 34.7 37.8999 40.7889 37.8999 48.3C37.8999 55.8111 43.9888 61.9 51.4999 61.9Z" stroke="#183762" stroke-width="3" stroke-miterlimit="10"/>
<path d="M54.8 27.2V18.4C54.8 17.3 54 16 53.1 15.4L29.9 1.9C28.9 1.3 27.4 1.3 26.4 1.9L3.2 15.3C2.2 15.8 1.5 17.2 1.5 18.3V45.1C1.5 46.2 2.3 47.6 3.2 48.1L26.4 61.5C27.4 62.1 28.9 62.1 29.9 61.5L33.8 59.2" stroke="#183762" stroke-width="3" stroke-miterlimit="10"/>
<path d="M28.2 31.5V50.6" stroke="#183762" stroke-width="2" stroke-miterlimit="10"/>
<path d="M2.80005 17.1L28.1 31.7" stroke="#183762" stroke-width="2" stroke-miterlimit="10"/>
<path d="M45 22L28.2 31.7" stroke="#183762" stroke-width="2" stroke-miterlimit="10"/>
<path d="M41.7999 8.6L15.2 24" stroke="#183762" stroke-width="2" stroke-miterlimit="10"/>
</g>
<defs>
<clipPath id="clip0">
<rect width="66.7" height="63.5" fill="white"/>
</clipPath>
</defs>
</svg>
