<svg width="14" height="15" viewBox="0 0 14 15" fill="none" xmlns="http://www.w3.org/2000/svg">
<path d="M2.80487 9.27843C3.09051 9.71426 3.37616 10.1501 3.73321 10.5133C4.16168 11.0218 4.66156 11.4576 5.23285 11.8935C6.87531 13.201 8.94624 13.9274 11.0172 14C11.0172 14 11.517 13.9274 11.6599 13.7821L12.5882 12.9104C12.9453 12.6198 13.0881 11.9661 12.9453 11.5303L12.8739 11.3123C12.8024 11.0218 12.5882 10.7312 12.3026 10.5133C12.1597 10.368 12.0169 10.2954 11.8741 10.2227L10.3031 9.71426C9.87458 9.56899 9.23188 9.71426 8.87483 10.0048L8.23212 10.5859C6.08979 9.85954 4.51874 8.11619 4.01886 5.937L4.66156 5.35589C5.01862 5.06533 5.16144 4.41157 5.09003 3.97574L4.80438 2.30502C4.80438 2.23239 4.73297 2.08711 4.66156 2.01447C4.44733 1.65127 4.16168 1.28807 3.80462 1.14279L3.6618 1.07015C3.23333 0.924872 2.59063 0.997512 2.23358 1.36071L1.30523 2.15975C1.16241 2.37766 1.01958 2.8135 1.01958 2.8135C0.876762 5.13797 1.51946 7.3898 2.80487 9.27843Z" stroke="white" stroke-width="1.4" stroke-miterlimit="10"/>
</svg>
